<svg xmlns="http://www.w3.org/2000/svg" width="20" height="20" viewBox="0 0 20 20"><defs><style>.a,.b{fill:#666;}.a{opacity:0;}</style></defs><g transform="translate(-0.265 -0.097)"><g transform="translate(0.265 0.097)"><rect class="a" width="20" height="20" transform="translate(0)"/><path class="b" d="M18.737,17.475l-3.021-3.012a7.038,7.038,0,0,0,1.5-4.354,7.109,7.109,0,1,0-7.109,7.109,7.038,7.038,0,0,0,4.354-1.5l3.012,3.021a.892.892,0,1,0,1.262-1.262ZM4.777,10.109a5.332,5.332,0,1,1,5.332,5.332,5.332,5.332,0,0,1-5.332-5.332Z" transform="translate(-1 -1)"/></g></g></svg>